<?xml version="1.0" encoding="utf-8"?>
<!-- Generator: Adobe Illustrator 22.1.0, SVG Export Plug-In . SVG Version: 6.00 Build 0)  -->
<svg version="1.1" id="Calque_1" xmlns="http://www.w3.org/2000/svg" xmlns:xlink="http://www.w3.org/1999/xlink" x="0px" y="0px"
	 viewBox="0 0 500 500" style="enable-background:new 0 0 500 500;" xml:space="preserve">
<style type="text/css">
	.st0{fill:none;}
	.st1{fill:#38A958;}
	.st2{fill:#FFFFFF;}
</style>
<line class="st0" x1="54.5" y1="159.3" x2="125.2" y2="88.6"/>
<g>
	<g>
		<path class="st1" d="M249.9,100C167.2,100,100,167.2,100,249.9c0,82.9,67.2,150.1,149.9,150.1c82.9,0,150.1-67.2,150.1-150.1
			C400,167.2,332.8,100,249.9,100L249.9,100z M319.2,337.9c-1.8,3.4-5.4,5.3-9,5.3c-1.8,0-3.4-0.4-5-1.3
			c-24-13.2-51.3-20.2-78.8-20.2c-16.5,0-32.9,2.5-48.4,7.3c-5.5,1.7-11.2-1.4-12.9-6.8c-1.6-5.4,1.4-16.9,6.8-18.7
			c17.7-5.4,36-8.2,54.6-8.2c31,0,61.8,7.9,88.8,22.8C320.2,320.9,322,332.9,319.2,337.9L319.2,337.9z M338.3,281.4
			c-2.1,4.1-6.3,10.8-10.6,10.8c-1.9,0-3.7-0.4-5.6-1.4c-29.8-15.5-61.9-23.3-95.7-23.3c-18.6,0-37,2.4-54.8,7.3
			c-6.4,1.7-13-2-14.7-8.4c-1.7-6.5,2-17.4,8.4-19.1c19.9-5.4,40.5-8.2,61.2-8.2c37.1,0,74.1,9,106.7,26
			C339.1,268.3,341.4,275.5,338.3,281.4L338.3,281.4z M346.3,236.1c-2,0-4.1-0.5-6-1.4C304.7,217,266.4,208,226.4,208
			c-20.8,0-41.5,2.6-61.6,7.5c-7.4,1.8-14.8-2.7-16.7-10c-1.8-7.4,2.6-16.3,10-18.1c22.4-5.5,45.2-8.3,68.3-8.3
			c44.2,0,86.7,10,126,29.6c6.8,3.4,9.6,11.6,6.2,18.5C356.2,231.9,351.4,236.1,346.3,236.1L346.3,236.1z M346.3,236.1"/>
	</g>
	<g>
		<path class="st2" d="M303.7,51.8c1.5,1,1.5,2.9,0,3.9l-50,34c-1.5,1-3.9,0-3.9-1.9V69.3c-99.6,0-180.7,81.1-180.7,180.7
			c0,57.8,27.7,112.2,74.8,146.2l-18.5,25.7C70.5,382.1,38,318,38,250C37.5,133,132.7,37.8,249.8,37.8V19.3c0-1.9,2.4-2.9,3.9-1.9
			L303.7,51.8z"/>
		<path class="st2" d="M462,250c0-67.5-32.5-132.1-87.4-171.9l-18.5,25.7c46.6,34,74.8,88.4,74.8,146.2
			c0,99.6-81.1,180.7-180.7,180.7l0,0v-18.5c0-1.9-2.4-2.9-3.9-1.9l-50.5,34c-1.5,1-1.5,2.9,0,3.9l50,34.5c1.5,1,3.9,0,3.9-1.9
			v-18.5l0,0C366.8,462.2,462,367,462,250z"/>
	</g>
</g>
</svg>
