<?xml version="1.0" encoding="utf-8"?>
<!-- Generator: Adobe Illustrator 22.1.0, SVG Export Plug-In . SVG Version: 6.00 Build 0)  -->
<svg version="1.1" id="Calque_1" xmlns="http://www.w3.org/2000/svg" xmlns:xlink="http://www.w3.org/1999/xlink" x="0px" y="0px"
	 viewBox="0 0 3057 517" style="enable-background:new 0 0 3057 517;" xml:space="preserve">
<style type="text/css">
	.st0{fill:#FFFFFF;}
	.st1{fill:#38A958;}
	.st2{fill:#FFFFFF;stroke:#FFFFFF;stroke-width:17;stroke-miterlimit:10;}
</style>
<g>
	<path class="st0" d="M166.6,100.3v375.4h-66V100.3H0v-62h266.9v62H166.6z"/>
	<path class="st0" d="M391.8,38.2v263.5c0,37.6,6.1,65.1,18.4,82.4c18.3,25.1,44.1,37.7,77.3,37.7c33.4,0,59.3-12.6,77.6-37.7
		c12.3-16.8,18.4-44.3,18.4-82.4V38.2h66v281.6c0,46.1-14.4,84-43.1,113.9c-32.3,33.2-72,49.9-119,49.9s-86.6-16.6-118.7-49.9
		c-28.7-29.8-43.1-67.8-43.1-113.9V38.2H391.8z"/>
	<path class="st0" d="M902.5,289.2L1038,475.6h-80.7l-124.9-179h-11.9v179h-66V38.2h77.3c57.8,0,99.5,10.9,125.2,32.6
		c28.3,24.2,42.5,56.1,42.5,95.8c0,31-8.9,57.6-26.6,79.9C955.1,268.7,931.6,283,902.5,289.2z M820.4,239.1h21
		c62.5,0,93.8-23.9,93.8-71.7c0-44.8-30.4-67.1-91.2-67.1h-23.5V239.1z"/>
	<path class="st0" d="M1103.7,475.6V8.5l319,333.7v-304h66v464l-319-332.9v306.2H1103.7z"/>
	<path class="st0" d="M2075.1,38.2l121,303.1l122.7-303.1h72.2l-196.3,470.3L2002.9,38.2H2075.1z"/>
	<path class="st0" d="M2686.7,100.3h-175.4v105.1h170.3v62h-170.3v146.2h175.4v62h-241.4V38.2h241.4V100.3z"/>
	<path class="st0" d="M2921.6,289.2L3057,475.6h-80.7l-124.9-179h-11.9v179h-66V38.2h77.3c57.8,0,99.5,10.9,125.2,32.6
		c28.3,24.2,42.5,56.1,42.5,95.8c0,31-8.9,57.6-26.6,79.9S2950.7,283,2921.6,289.2z M2839.4,239.1h21c62.5,0,93.8-23.9,93.8-71.7
		c0-44.8-30.4-67.1-91.2-67.1h-23.5V239.1z"/>
	<g>
		<g>
			<path class="st1" d="M1774.3,117.5c-77.8,0-140.9,63.2-140.9,140.9c0,77.9,63.2,141.1,140.9,141.1c77.9,0,141.1-63.2,141.1-141.1
				C1915.3,180.7,1852.2,117.5,1774.3,117.5L1774.3,117.5z M1839.4,341.1c-1.7,3.2-5.1,5-8.4,5c-1.7,0-3.2-0.4-4.7-1.2
				c-22.6-12.4-48.2-19-74.1-19c-15.5,0-30.9,2.3-45.5,6.9c-5.2,1.6-10.6-1.3-12.1-6.4c-1.5-5.1,1.3-15.9,6.4-17.6
				c16.6-5.1,33.8-7.7,51.3-7.7c29.2,0,58.1,7.4,83.5,21.4C1840.4,325.2,1842,336.4,1839.4,341.1L1839.4,341.1z M1857.3,288.1
				c-2,3.9-5.9,10.2-10,10.2c-1.8,0-3.5-0.4-5.2-1.3c-28-14.6-58.2-21.9-89.9-21.9c-17.5,0-34.8,2.2-51.5,6.9
				c-6,1.6-12.2-1.9-13.9-7.9c-1.6-6.1,1.9-16.3,7.9-18c18.7-5.1,38-7.7,57.5-7.7c34.9,0,69.6,8.4,100.3,24.5
				C1858.1,275.7,1860.3,282.5,1857.3,288.1L1857.3,288.1z M1864.8,245.5c-1.9,0-3.9-0.4-5.7-1.3c-33.4-16.7-69.3-25.1-107-25.1
				c-19.5,0-39,2.4-57.9,7.1c-7,1.7-13.9-2.5-15.7-9.4c-1.7-7,2.5-15.3,9.4-17.1c21-5.2,42.5-7.8,64.2-7.8
				c41.5,0,81.5,9.4,118.4,27.8c6.4,3.2,9,10.9,5.8,17.4C1874.2,241.5,1869.6,245.5,1864.8,245.5L1864.8,245.5z M1864.8,245.5"/>
		</g>
		<g>
			<path class="st2" d="M1831.9,45.9c1.6,1,1.6,3.1,0,4.2l-53.7,36.5c-1.6,1-4.2,0-4.2-2.1V64.7c-106.8,0-193.8,87-193.8,193.8
				c0,62,29.7,120.4,80.2,156.8l-19.8,27.6c-58.9-42.7-93.8-111.5-93.8-184.5c-0.5-125.6,101.6-227.7,227.2-227.7V11
				c0-2.1,2.6-3.1,4.2-2.1L1831.9,45.9z"/>
			<path class="st2" d="M2001.8,258.5c0-72.4-34.9-141.7-93.8-184.5l-19.8,27.6c50,36.5,80.2,94.8,80.2,156.8
				c0,106.8-87,193.8-193.8,193.8l0,0v-19.8c0-2.1-2.6-3.1-4.2-2.1l-54.2,36.5c-1.6,1-1.6,3.1,0,4.2l53.7,37c1.6,1,4.2,0,4.2-2.1
				v-19.8l0,0C1899.7,486.2,2001.8,384.1,2001.8,258.5z"/>
		</g>
	</g>
</g>
</svg>
