<?xml version="1.0" encoding="utf-8"?>
<!-- Generator: Adobe Illustrator 22.1.0, SVG Export Plug-In . SVG Version: 6.00 Build 0)  -->
<svg version="1.1" id="Calque_1" xmlns="http://www.w3.org/2000/svg" xmlns:xlink="http://www.w3.org/1999/xlink" x="0px" y="0px"
	 viewBox="0 0 4114.4 530" style="enable-background:new 0 0 4114.4 530;" xml:space="preserve">
<style type="text/css">
	.st0{fill:#38A958;}
	.st1{fill:#FFFFFF;stroke:#FFFFFF;stroke-width:30;stroke-miterlimit:10;}
	.st2{fill:#FFFFFF;}
</style>
<g>
	<g>
		<g>
			<path class="st0" d="M2341.2,124c-77.8,0-140.9,63.2-140.9,140.9c0,77.9,63.2,141.1,140.9,141.1c77.9,0,141.1-63.2,141.1-141.1
				C2482.3,187.2,2419.1,124,2341.2,124L2341.2,124z M2406.4,347.6c-1.7,3.2-5.1,5-8.4,5c-1.7,0-3.2-0.4-4.7-1.2
				c-22.6-12.4-48.2-19-74.1-19c-15.5,0-30.9,2.3-45.5,6.9c-5.2,1.6-10.6-1.3-12.1-6.4c-1.5-5.1,1.3-15.9,6.4-17.6
				c16.6-5.1,33.8-7.7,51.3-7.7c29.2,0,58.1,7.4,83.5,21.4C2407.3,331.7,2409,342.9,2406.4,347.6L2406.4,347.6z M2424.3,294.6
				c-2,3.9-5.9,10.2-10,10.2c-1.8,0-3.5-0.4-5.2-1.3c-28-14.6-58.2-21.9-89.9-21.9c-17.5,0-34.8,2.2-51.5,6.9
				c-6,1.6-12.2-1.9-13.9-7.9c-1.6-6.1,1.9-16.3,7.9-18c18.7-5.1,38-7.7,57.5-7.7c34.9,0,69.6,8.4,100.3,24.5
				C2425.1,282.2,2427.2,289,2424.3,294.6L2424.3,294.6z M2431.8,252c-1.9,0-3.9-0.4-5.7-1.3c-33.4-16.7-69.3-25.1-107-25.1
				c-19.5,0-39,2.4-57.9,7.1c-7,1.7-13.9-2.5-15.7-9.4c-1.7-7,2.5-15.3,9.4-17.1c21-5.2,42.5-7.8,64.2-7.8
				c41.5,0,81.5,9.4,118.4,27.8c6.4,3.2,9,10.9,5.8,17.4C2441.2,248,2436.6,252,2431.8,252L2431.8,252z M2431.8,252"/>
		</g>
		<g>
			<path class="st1" d="M2398.9,52.4c1.6,1,1.6,3.1,0,4.2L2345.2,93c-1.6,1-4.2,0-4.2-2.1V71.2c-106.8,0-193.8,87-193.8,193.8
				c0,62,29.7,120.4,80.2,156.8l-19.8,27.6c-58.9-42.7-93.8-111.5-93.8-184.5c-0.5-125.6,101.6-227.7,227.2-227.7V17.5
				c0-2.1,2.6-3.1,4.2-2.1L2398.9,52.4z"/>
			<path class="st1" d="M2568.7,265c0-72.4-34.9-141.7-93.8-184.5l-19.8,27.6c50,36.5,80.2,94.8,80.2,156.8
				c0,106.8-87,193.8-193.8,193.8l0,0V439c0-2.1-2.6-3.1-4.2-2.1l-54.2,36.5c-1.6,1-1.6,3.1,0,4.2l53.7,37c1.6,1,4.2,0,4.2-2.1
				v-19.8l0,0C2466.6,492.7,2568.7,390.6,2568.7,265z"/>
		</g>
	</g>
	<g>
		<path class="st2" d="M157.3,107.7H0V15h428.4v92.7H271.1v398.9H157.3V107.7z"/>
		<path class="st2" d="M535.5,456.7c-39.1-38.9-58.6-94.3-58.6-166.4V15h113.8v271.1c0,88,36.5,132,109.6,132
			c35.6,0,62.7-10.6,81.5-32c18.7-21.3,28.1-54.7,28.1-100.1V15h112.4v275.3c0,72.1-19.6,127.6-58.6,166.4
			c-39.1,38.9-93.8,58.3-164,58.3S574.5,495.6,535.5,456.7z"/>
		<path class="st2" d="M1347.6,506.6l-94.8-136.9h-5.6h-99v136.9h-113.8V15h212.8c43.5,0,81.3,7.3,113.4,21.8
			c32.1,14.5,56.8,35.1,74.1,61.8c17.3,26.7,26,58.3,26,94.8s-8.8,68-26.3,94.5c-17.6,26.5-42.5,46.7-74.8,60.7l110.3,158H1347.6z
			 M1318.8,129.8c-17.8-14.7-43.8-22.1-77.9-22.1h-92.7V279h92.7c34.2,0,60.2-7.5,77.9-22.5c17.8-15,26.7-36,26.7-63.2
			C1345.5,165.8,1336.6,144.6,1318.8,129.8z"/>
		<path class="st2" d="M2001.4,15v491.6H1908l-245.1-298.5v298.5h-112.4V15h94.1L1889,313.5V15H2001.4z"/>
		<path class="st2" d="M3167.1,15l-212.8,491.6H2842L2629.9,15h122.9l149.6,351.1L3054.1,15H3167.1z"/>
		<path class="st2" d="M3588.5,415.3v91.3h-380.6V15h371.5v91.3h-258.4V213h228.2v88.5h-228.2v113.8H3588.5z"/>
		<path class="st2" d="M3992.2,506.6l-94.8-136.9h-5.6h-99v136.9H3679V15h212.8c43.5,0,81.3,7.3,113.4,21.8
			c32.1,14.5,56.8,35.1,74.1,61.8c17.3,26.7,26,58.3,26,94.8s-8.8,68-26.3,94.5c-17.6,26.5-42.5,46.7-74.8,60.7l110.3,158H3992.2z
			 M3963.5,129.8c-17.8-14.7-43.8-22.1-77.9-22.1h-92.7V279h92.7c34.2,0,60.2-7.5,77.9-22.5c17.8-15,26.7-36,26.7-63.2
			C3990.1,165.8,3981.2,144.6,3963.5,129.8z"/>
	</g>
</g>
</svg>
