<?xml version="1.0" encoding="utf-8"?>
<!-- Generator: Adobe Illustrator 22.1.0, SVG Export Plug-In . SVG Version: 6.00 Build 0)  -->
<svg version="1.1" id="Calque_1" xmlns="http://www.w3.org/2000/svg" xmlns:xlink="http://www.w3.org/1999/xlink" x="0px" y="0px"
	 viewBox="0 0 23.2 23.2" style="enable-background:new 0 0 23.2 23.2;" xml:space="preserve">
<style type="text/css">
	.st0{fill:#FFFFFF;}
</style>
<title>Close</title>
<desc>Created with Sketch.</desc>
<g>
	<g transform="translate(-470.000000, -720.000000)">
		<g transform="translate(20.000000, 720.000000)">
			<path class="st0" d="M463,11.6l9.9-9.9c0.4-0.4,0.4-1,0-1.4c-0.4-0.4-1-0.4-1.4,0l-9.9,9.9l-9.9-9.9c-0.4-0.4-1-0.4-1.4,0
				c-0.4,0.4-0.4,1,0,1.4l9.9,9.9l-9.9,9.9c-0.4,0.4-0.4,1,0,1.4c0.4,0.4,1,0.4,1.4,0l9.9-9.9l9.9,9.9c0.4,0.4,1,0.4,1.4,0
				c0.4-0.4,0.4-1,0-1.4L463,11.6z"/>
		</g>
	</g>
</g>
</svg>
