<?xml version="1.0" encoding="utf-8"?>
<!-- Generator: Adobe Illustrator 22.1.0, SVG Export Plug-In . SVG Version: 6.00 Build 0)  -->
<svg version="1.1" id="Calque_1" xmlns="http://www.w3.org/2000/svg" xmlns:xlink="http://www.w3.org/1999/xlink" x="0px" y="0px"
	 viewBox="0 0 89.4 90.2" style="enable-background:new 0 0 89.4 90.2;" xml:space="preserve">
<style type="text/css">
	.st0{fill:#FFFFFF;}
</style>
<path class="st0" d="M79.5,49.7c0.3-2.8,0.4-5.6,0-8.5l8.6-7c1.2-1,1.7-2.7,1.1-4.2l-2.1-5.2c-0.6-1.4-1.9-2.3-3.3-2.3
	c-0.1,0-0.2,0-0.3,0l-11.1,0.9c-1.7-2.2-3.6-4.1-5.7-5.9l1.2-11.2c0.2-1.6-0.7-3.1-2.2-3.7l-5.1-2.2c-0.5-0.2-0.9-0.3-1.4-0.3
	c-1,0-2,0.5-2.7,1.3L49.3,10c-1.5-0.2-3-0.3-4.5-0.3c-1.2,0-2.4,0.1-3.6,0.2l-7-8.8C33.4,0.5,32.4,0,31.3,0c-0.4,0-0.9,0.1-1.3,0.3
	l-5.2,2c-1.5,0.6-2.4,2.1-2.2,3.7l0.9,11c-2.3,1.7-4.3,3.7-6.1,5.9L6.5,21.7c-0.1,0-0.3,0-0.4,0c-1.4,0-2.7,0.9-3.3,2.2L0.7,29
	c-0.6,1.5-0.2,3.2,1,4.2l8.2,7c-0.4,2.9-0.5,5.9-0.2,8.9l-8.3,6.7c-1.2,1-1.7,2.7-1.1,4.2l2.1,5.2c0.6,1.4,1.9,2.3,3.3,2.3
	c0.1,0,0.2,0,0.3,0l10.4-0.9c1.8,2.5,3.9,4.7,6.3,6.6l-1.1,10.5c-0.2,1.6,0.7,3.1,2.2,3.7l5.1,2.2c0.5,0.2,0.9,0.3,1.4,0.3
	c1,0,2.1-0.4,2.7-1.3l6.7-8c1.6,0.2,3.2,0.3,4.8,0.3c1.4,0,2.8-0.1,4.3-0.3l6.6,8.2c0.7,0.9,1.7,1.4,2.8,1.4c0.4,0,0.9-0.1,1.3-0.3
	l5.1-2.1c1.5-0.6,2.4-2.1,2.2-3.7l-0.9-10.7c2.3-1.8,4.4-3.9,6.2-6.2l10.7,1.2c0.1,0,0.3,0,0.4,0c1.4,0,2.7-0.9,3.3-2.2l2.2-5.1
	c0.6-1.5,0.2-3.2-1-4.2L79.5,49.7z M83.4,64.7l-12.7-1.4c-2.3,3.3-5.1,6.1-8.3,8.3l1.1,12.7l-5.1,2.1l-7.9-9.9
	c-1.9,0.4-3.8,0.5-5.8,0.5c-2.1,0-4.1-0.2-6.2-0.6L30.4,86l-5.1-2.2l1.3-12.5c-3.4-2.4-6.2-5.3-8.3-8.7L5.8,63.8l-2.1-5.2l9.9-8
	c-0.7-3.9-0.6-7.9,0.2-11.8L4,30.5l2.2-5.1l12.9,1.4c2.3-3.2,5.1-5.9,8.2-7.9L26.2,5.8l5.1-2.1L39.6,14c1.7-0.3,3.4-0.4,5.2-0.4
	c2,0,4,0.2,6,0.6L59.3,4l5.1,2.2L63,19.4c3.1,2.2,5.7,4.9,7.8,8l13-1.2l2.1,5.2l-10.2,8.3c0.7,3.7,0.7,7.6,0,11.4l9.9,8.4L83.4,64.7
	z"/>
<path class="st0" d="M45.3,30.5c-8.2,0-14.8,6.7-14.8,14.9s6.6,14.9,14.8,14.9s14.8-6.7,14.8-14.9S53.4,30.5,45.3,30.5z M45.3,56.8
	c-6.2,0-11.2-5.1-11.2-11.3s5-11.3,11.2-11.3s11.2,5.1,11.2,11.3S51.5,56.8,45.3,56.8z"/>
</svg>
